<svg data-name="CD Baby logo Blue" xmlns="http://www.w3.org/2000/svg" viewBox="0 0 84 55"><defs><style>.logo-blue{fill:#40bcd0;}</style></defs><path class="logo-blue" d="M17.9,18.54a18.07,18.07,0,0,0,0,36.08.9.9,0,0,0,1-.9V19.44a.91.91,0,0,0-.91-.91h0m19.12,0a18.07,18.07,0,0,0,0,36.08.9.9,0,0,0,1-.9V19.44a.91.91,0,0,0-.91-.91h0m22.25,1V54.21a.53.53,0,0,0,.54.54,18.07,18.07,0,0,0,.41-36.11h0a.9.9,0,0,0-.9.91M39.47,1.4c0,5.43,0,32.45,0,34.94a2.3,2.3,0,0,0,0,.37c1.47,16.43,14.73,17.91,17.63,18a.52.52,0,0,0,.56-.53V31s0-10.65,0-12.28c0-.13,0-.27,0-.41C56.49,3.09,44.05.85,40.45.52h-.09a.89.89,0,0,0-.89.89"/><path class="logo-blue" d="M83.78,50.73a3.91,3.91,0,1,1-3.91-3.9,3.91,3.91,0,0,1,3.91,3.9"/></svg>